# xmcd
#
# Track frame offsets:
#	150
#	13724
#	24383
#	37669
#	53924
#	69502
#	80730
#	90895
#	106172
#	123070
#	139587
#	153758
#	165480
#	175424
#
# Disc length: 2512 seconds
#
# Revision: 1
# Processed by: cddbd v1.5.2PL0 Copyright (c) Steve Scherf et al.
# Submitted via: audiograbber 1.83.01
#
DISCID=9909ce0e
DTITLE=Dave Arcari - Come With me...
DYEAR=2007
DGENRE=Acosutic Blues
TTITLE0=Red Letter Blues
TTITLE1=Another Chance
TTITLE2=Bring My Baby Back
TTITLE3=Troubled Mind
TTITLE4=Come With Me
TTITLE5=Dreamt I Was 100
TTITLE6=Stagolee
TTITLE7=Nobody's Fault But Mine
TTITLE8=Going To See The King
TTITLE9=Gravel Road
TTITLE10=Good Friend Blues
TTITLE11=She's Gone
TTITLE12=Devil Got My Woman
TTITLE13=Project Blues
EXTD=
EXTT0=
EXTT1=
EXTT2=
EXTT3=
EXTT4=
EXTT5=
EXTT6=
EXTT7=
EXTT8=
EXTT9=
EXTT10=
EXTT11=
EXTT12=
EXTT13=
PLAYORDER=
